<svg width="239" height="69" viewBox="0 0 239 69" fill="none" xmlns="http://www.w3.org/2000/svg">
<path d="M90.4 24C93.84 24 96.44 24.7067 98.2 26.12C99.96 27.5067 100.84 29.56 100.84 32.28C100.84 34.0933 100.387 35.68 99.48 37.04C98.6 38.3733 97.3333 39.4 95.68 40.12C94.0267 40.84 92.08 41.2 89.84 41.2H86.52V47.92H87.36C88.4 47.92 88.92 48.3733 88.92 49.28V50.64C88.92 51.5467 88.4 52 87.36 52H80.84C79.8 52 79.28 51.5467 79.28 50.64V49.28C79.28 48.3733 79.8 47.92 80.84 47.92H81.72V28.08H80.84C79.8 28.08 79.28 27.6267 79.28 26.72V25.36C79.28 24.4533 79.8 24 80.84 24H90.4ZM89.6 37.12C91.8133 37.12 93.4133 36.7467 94.4 36C95.4133 35.2267 95.92 34.0133 95.92 32.36C95.92 30.8933 95.4667 29.8133 94.56 29.12C93.6533 28.4267 92.2133 28.08 90.24 28.08H86.52V37.12H89.6ZM117.661 31.6C118.835 31.6 119.741 31.9067 120.381 32.52C121.021 33.1333 121.341 33.9467 121.341 34.96C121.341 35.84 121.048 36.5867 120.461 37.2C119.901 37.7867 119.181 38.08 118.301 38.08C117.555 38.08 116.928 37.8667 116.421 37.44C115.941 36.9867 115.635 36.4 115.501 35.68C114.461 35.92 113.581 36.64 112.861 37.84C112.141 39.04 111.781 40.3867 111.781 41.88V47.92H113.421C114.461 47.92 114.981 48.3733 114.981 49.28V50.64C114.981 51.5467 114.461 52 113.421 52H106.141C105.101 52 104.581 51.5467 104.581 50.64V49.28C104.581 48.3733 105.101 47.92 106.141 47.92H107.021V36.08H106.141C105.101 36.08 104.581 35.6267 104.581 34.72V33.36C104.581 32.4533 105.101 32 106.141 32H110.061C110.541 32 110.941 32.1733 111.261 32.52C111.608 32.84 111.781 33.2267 111.781 33.68V36.72C112.261 35.1467 113.035 33.9067 114.101 33C115.168 32.0667 116.355 31.6 117.661 31.6ZM133.365 52.4C130.351 52.4 127.978 51.4933 126.245 49.68C124.511 47.84 123.645 45.3467 123.645 42.2C123.645 40.0667 124.045 38.2 124.845 36.6C125.671 35 126.831 33.7733 128.325 32.92C129.818 32.04 131.578 31.6 133.605 31.6C136.618 31.6 138.978 32.5067 140.685 34.32C142.418 36.1333 143.285 38.6133 143.285 41.76C143.285 43.8933 142.871 45.7733 142.045 47.4C141.245 49 140.098 50.24 138.605 51.12C137.111 51.9733 135.365 52.4 133.365 52.4ZM133.405 48.4C135.031 48.4 136.271 47.84 137.125 46.72C138.005 45.5733 138.445 43.9333 138.445 41.8C138.445 39.7733 138.031 38.24 137.205 37.2C136.378 36.1333 135.165 35.6 133.565 35.6C131.965 35.6 130.711 36.1733 129.805 37.32C128.925 38.4667 128.485 40.08 128.485 42.16C128.485 44.16 128.911 45.7067 129.765 46.8C130.618 47.8667 131.831 48.4 133.405 48.4Z" fill="#05AE58"/>
<path d="M166.524 24C167.084 24 167.537 24.1867 167.884 24.56C168.257 24.9333 168.444 25.3867 168.444 25.92V30.16C168.444 31.2 167.991 31.72 167.084 31.72H165.764C164.857 31.72 164.404 31.2 164.404 30.16V28.08H154.684V35.92H162.204C162.657 35.92 163.017 36.0667 163.284 36.36C163.577 36.6267 163.724 36.9867 163.724 37.44V38.52C163.724 38.9467 163.577 39.3067 163.284 39.6C162.991 39.8667 162.631 40 162.204 40H154.684V47.92H157.364C158.404 47.92 158.924 48.3733 158.924 49.28V50.64C158.924 51.5467 158.404 52 157.364 52H149.004C147.964 52 147.444 51.5467 147.444 50.64V49.28C147.444 48.3733 147.964 47.92 149.004 47.92H149.884V28.08H149.004C147.964 28.08 147.444 27.6267 147.444 26.72V25.36C147.444 24.4533 147.964 24 149.004 24H166.524ZM173.121 52C172.081 52 171.561 51.5467 171.561 50.64V49.28C171.561 48.3733 172.081 47.92 173.121 47.92H174.001V26.48H173.121C172.081 26.48 171.561 26.0267 171.561 25.12V23.76C171.561 22.8533 172.081 22.4 173.121 22.4H177.041C177.521 22.4 177.921 22.5733 178.241 22.92C178.588 23.24 178.761 23.6267 178.761 24.08V47.92H179.601C180.641 47.92 181.161 48.3733 181.161 49.28V50.64C181.161 51.5467 180.641 52 179.601 52H173.121ZM193.99 52.4C190.976 52.4 188.603 51.4933 186.87 49.68C185.136 47.84 184.27 45.3467 184.27 42.2C184.27 40.0667 184.67 38.2 185.47 36.6C186.296 35 187.456 33.7733 188.95 32.92C190.443 32.04 192.203 31.6 194.23 31.6C197.243 31.6 199.603 32.5067 201.31 34.32C203.043 36.1333 203.91 38.6133 203.91 41.76C203.91 43.8933 203.496 45.7733 202.67 47.4C201.87 49 200.723 50.24 199.23 51.12C197.736 51.9733 195.99 52.4 193.99 52.4ZM194.03 48.4C195.656 48.4 196.896 47.84 197.75 46.72C198.63 45.5733 199.07 43.9333 199.07 41.8C199.07 39.7733 198.656 38.24 197.83 37.2C197.003 36.1333 195.79 35.6 194.19 35.6C192.59 35.6 191.336 36.1733 190.43 37.32C189.55 38.4667 189.11 40.08 189.11 42.16C189.11 44.16 189.536 45.7067 190.39 46.8C191.243 47.8667 192.456 48.4 194.03 48.4ZM235.841 32C236.881 32 237.401 32.4533 237.401 33.36V34.72C237.401 35.6267 236.881 36.08 235.841 36.08H234.961L230.161 50.92C230.055 51.24 229.868 51.5067 229.601 51.72C229.335 51.9067 229.028 52 228.681 52H227.041C226.695 52 226.388 51.9067 226.121 51.72C225.881 51.5067 225.695 51.24 225.561 50.92L221.761 40.52L217.921 50.92C217.788 51.24 217.588 51.5067 217.321 51.72C217.081 51.9067 216.788 52 216.441 52H214.801C214.455 52 214.148 51.9067 213.881 51.72C213.615 51.5067 213.428 51.24 213.321 50.92L208.521 36.08H207.641C206.601 36.08 206.081 35.6267 206.081 34.72V33.36C206.081 32.4533 206.601 32 207.641 32H214.241C215.281 32 215.801 32.4533 215.801 33.36V34.72C215.801 35.6267 215.281 36.08 214.241 36.08H213.401L216.481 45.84L219.921 36.44C220.188 35.6933 220.695 35.32 221.441 35.32H222.801C223.495 35.32 224.001 35.6933 224.321 36.44L227.761 45.8L230.841 36.08H229.961C228.921 36.08 228.401 35.6267 228.401 34.72V33.36C228.401 32.4533 228.921 32 229.961 32H235.841Z" fill="#182C72"/>
<path d="M55.6544 68.6614L53.6019 60.62C52.8142 57.5345 50.0345 55.3746 46.8492 55.3746H45.6243C29.3403 55.3746 13.4368 50.4519 0.000141144 41.2521H39.969C46.9392 41.2521 53.4035 44.8893 57.0222 50.8466C58.2073 52.7977 59.049 54.9385 59.5102 57.1741L61.8794 68.6614H55.6544Z" fill="#05AE58"/>
<path d="M54.7831 16.9028L66 3.40878L62.7733 21.6482C61.1068 31.0689 54.4031 38.8143 45.3188 41.8142L39.9688 41.2522L54.7831 16.9028Z" fill="#E68B59"/>
<path d="M31.9617 41.2522L28.4101 39.1414C26.6351 38.086 24.7304 37.2666 22.7444 36.7029C17.5819 35.2381 13.0659 32.0719 9.92915 27.7184L2.13685 16.9027L5.84329 19.1106C13.7675 23.831 22.033 27.9534 30.5705 31.4434L35.678 41.2522H31.9617Z" fill="#2845AC"/>
<path d="M38.1866 41.2522L39.4503 37.1456C43.4276 24.2197 48.7984 11.7648 55.4683 0L54.71 18.6979C54.3186 28.3552 48.6567 37.0175 39.9687 41.2522H38.1866Z" fill="#F7BE94"/>
<path d="M35.6781 41.2522L29.4341 29.2601C27.0049 24.5947 25.7369 19.4126 25.7369 14.1525C25.7369 10.8833 25.2468 7.6331 24.283 4.50942L22.9496 0.185333L31.2554 15.2504C32.0317 16.6591 33.008 17.9478 34.1528 19.0773C36.5389 21.4307 38.1618 24.4475 38.8105 27.7359L40.1985 34.7715L38.5358 41.2527H35.6781V41.2522Z" fill="#F7BE94"/>
<path d="M35.652 20.7717C35.531 19.6154 35.4694 18.4401 35.4694 17.2489C35.4694 10.9422 37.2073 5.07695 40.1898 0.185913C43.1717 5.0775 44.9097 10.9422 44.9097 17.2489C44.9097 19.0779 44.7636 20.8698 44.4834 22.6115L39.5803 34.4412L35.652 20.7717Z" fill="#E68B59"/>
</svg>
